<svg width="20" height="20" viewBox="0 0 20 20" fill="none" xmlns="http://www.w3.org/2000/svg">
<path d="M15.758 15.2067H4.44655C4.29021 15.2131 4.14242 15.2795 4.03407 15.3919C3.92573 15.5044 3.86523 15.6542 3.86523 15.8101C3.86523 15.966 3.92573 16.1158 4.03407 16.2283C4.14242 16.3407 4.29021 16.4071 4.44655 16.4135H15.758C15.9144 16.4071 16.0622 16.3407 16.1705 16.2283C16.2789 16.1158 16.3394 15.966 16.3394 15.8101C16.3394 15.6542 16.2789 15.5044 16.1705 15.3919C16.0622 15.2795 15.9144 15.2131 15.758 15.2067Z" fill="#4EB3D4"/>
<path d="M15.8585 3.33338H14.2429C14.1368 3.33325 14.0317 3.35395 13.9336 3.3943C13.8355 3.43466 13.7464 3.49388 13.6714 3.56857C13.5963 3.64326 13.5367 3.73196 13.4961 3.8296C13.4555 3.92724 13.4345 4.0319 13.4345 4.1376C13.4384 4.24569 13.4204 4.35345 13.3815 4.45445C13.3427 4.55545 13.2838 4.64761 13.2084 4.72544C13.133 4.80328 13.0426 4.86518 12.9427 4.90746C12.8428 4.94974 12.7353 4.97153 12.6267 4.97153C12.5181 4.97153 12.4107 4.94974 12.3107 4.90746C12.2108 4.86518 12.1204 4.80328 12.0451 4.72544C11.9697 4.64761 11.9108 4.55545 11.8719 4.45445C11.8331 4.35345 11.815 4.24569 11.8189 4.1376C11.8189 3.92431 11.7338 3.71975 11.5824 3.56893C11.4311 3.41811 11.2257 3.33338 11.0116 3.33338H8.99078C8.77667 3.33338 8.57133 3.41811 8.41993 3.56893C8.26853 3.71975 8.18347 3.92431 8.18347 4.1376C8.18734 4.24569 8.16931 4.35345 8.13045 4.45445C8.0916 4.55545 8.03272 4.64761 7.95732 4.72544C7.88193 4.80328 7.79157 4.86518 7.69163 4.90746C7.59169 4.94974 7.48423 4.97153 7.37566 4.97153C7.26708 4.97153 7.15962 4.94974 7.05968 4.90746C6.95975 4.86518 6.86939 4.80328 6.79399 4.72544C6.7186 4.64761 6.65971 4.55545 6.62086 4.45445C6.582 4.35345 6.56397 4.24569 6.56784 4.1376C6.56784 4.0319 6.54692 3.92724 6.50629 3.8296C6.46565 3.73196 6.4061 3.64326 6.33102 3.56857C6.25595 3.49388 6.16683 3.43466 6.06877 3.3943C5.9707 3.35395 5.86561 3.33325 5.75951 3.33338H4.14388C4.0376 3.33298 3.93229 3.35348 3.83399 3.39372C3.73569 3.43395 3.64633 3.49313 3.57104 3.56784C3.49575 3.64256 3.436 3.73136 3.39524 3.82913C3.35448 3.9269 3.3335 4.03173 3.3335 4.1376V13.3938C3.3335 13.4995 3.35441 13.6042 3.39505 13.7018C3.43568 13.7995 3.49524 13.8882 3.57031 13.9629C3.64539 14.0375 3.7345 14.0968 3.83257 14.1371C3.93063 14.1775 4.03572 14.1982 4.14183 14.198H15.8585C15.9646 14.1982 16.0697 14.1775 16.1678 14.1371C16.2658 14.0968 16.3549 14.0375 16.43 13.9629C16.5051 13.8882 16.5646 13.7995 16.6053 13.7018C16.6459 13.6042 16.6668 13.4995 16.6668 13.3938V4.1376C16.6668 4.0319 16.6459 3.92724 16.6053 3.8296C16.5646 3.73196 16.5051 3.64326 16.43 3.56857C16.3549 3.49388 16.2658 3.43466 16.1678 3.3943C16.0697 3.35395 15.9646 3.33325 15.8585 3.33338ZM6.36576 12.6611C6.20584 12.6613 6.04946 12.6143 5.91639 12.5259C5.78333 12.4376 5.67957 12.3119 5.61823 12.1647C5.55689 12.0176 5.54074 11.8557 5.57181 11.6994C5.60288 11.5431 5.67979 11.3996 5.79279 11.2869C5.9058 11.1741 6.04983 11.0973 6.20666 11.0662C6.36349 11.035 6.52607 11.0509 6.67383 11.1118C6.82159 11.1728 6.9479 11.276 7.03676 11.4084C7.12563 11.5409 7.17306 11.6966 7.17306 11.8559C7.17306 12.0693 7.08804 12.2739 6.93667 12.4249C6.7853 12.5759 6.57996 12.6609 6.36576 12.6611ZM6.36576 10.2464C6.20584 10.2466 6.04946 10.1996 5.91639 10.1112C5.78333 10.0229 5.67957 9.89716 5.61823 9.75004C5.55689 9.60292 5.54074 9.44098 5.57181 9.28471C5.60288 9.12844 5.67979 8.98486 5.79279 8.87215C5.9058 8.75943 6.04983 8.68263 6.20666 8.65148C6.36349 8.62033 6.52607 8.63621 6.67383 8.69713C6.82159 8.75805 6.9479 8.86126 7.03676 8.9937C7.12563 9.12614 7.17306 9.28187 7.17306 9.44118C7.17306 9.65456 7.08804 9.85923 6.93667 10.0102C6.7853 10.1612 6.57996 10.2461 6.36576 10.2464ZM8.78972 12.6611C8.6298 12.6613 8.47342 12.6143 8.34036 12.5259C8.20729 12.4376 8.10353 12.3119 8.04219 12.1647C7.98085 12.0176 7.9647 11.8557 7.99577 11.6994C8.02685 11.5431 8.10375 11.3996 8.21676 11.2869C8.32976 11.1741 8.47379 11.0973 8.63062 11.0662C8.78745 11.035 8.95003 11.0509 9.09779 11.1118C9.24555 11.1728 9.37186 11.276 9.46072 11.4084C9.54959 11.5409 9.59702 11.6966 9.59702 11.8559C9.59702 12.0693 9.512 12.2739 9.36063 12.4249C9.20926 12.5759 9.00392 12.6609 8.78972 12.6611ZM8.78972 10.2464C8.6298 10.2466 8.47342 10.1996 8.34036 10.1112C8.20729 10.0229 8.10353 9.89716 8.04219 9.75004C7.98085 9.60292 7.9647 9.44098 7.99577 9.28471C8.02685 9.12844 8.10375 8.98486 8.21676 8.87215C8.32976 8.75943 8.47379 8.68263 8.63062 8.65148C8.78745 8.62033 8.95003 8.63621 9.09779 8.69713C9.24555 8.75805 9.37186 8.86126 9.46072 8.9937C9.54959 9.12614 9.59702 9.28187 9.59702 9.44118C9.59702 9.65456 9.512 9.85923 9.36063 10.0102C9.20926 10.1612 9.00392 10.2461 8.78972 10.2464ZM8.78972 7.83171C8.6298 7.83191 8.47342 7.78486 8.34036 7.6965C8.20729 7.60814 8.10353 7.48245 8.04219 7.33533C7.98085 7.18821 7.9647 7.02627 7.99577 6.87C8.02685 6.71373 8.10375 6.57015 8.21676 6.45744C8.32976 6.34472 8.47379 6.26792 8.63062 6.23677C8.78745 6.20562 8.95003 6.2215 9.09779 6.28242C9.24555 6.34334 9.37186 6.44655 9.46072 6.57899C9.54959 6.71143 9.59702 6.86716 9.59702 7.02647C9.59648 7.2395 9.51122 7.44364 9.35991 7.59418C9.2086 7.74472 9.00357 7.8294 8.78972 7.82967V7.83171ZM11.2127 12.6611C11.0528 12.6611 10.8965 12.6139 10.7636 12.5254C10.6306 12.4369 10.527 12.3112 10.4659 12.164C10.4047 12.0169 10.3887 11.855 10.4199 11.6988C10.451 11.5426 10.528 11.3991 10.6411 11.2865C10.7541 11.1739 10.8982 11.0972 11.055 11.0661C11.2118 11.035 11.3743 11.051 11.522 11.1119C11.6697 11.1729 11.7959 11.2761 11.8848 11.4085C11.9736 11.5409 12.021 11.6966 12.021 11.8559C12.0211 11.9617 12.0003 12.0664 11.9597 12.1642C11.9192 12.262 11.8596 12.3508 11.7845 12.4256C11.7094 12.5004 11.6203 12.5597 11.5222 12.6001C11.424 12.6405 11.3188 12.6613 11.2127 12.6611V12.6611ZM11.2127 10.2464C11.0528 10.2464 10.8965 10.1992 10.7636 10.1107C10.6306 10.0222 10.527 9.89647 10.4659 9.74933C10.4047 9.60219 10.3887 9.44028 10.4199 9.28408C10.451 9.12788 10.528 8.9844 10.6411 8.87178C10.7541 8.75917 10.8982 8.68248 11.055 8.65141C11.2118 8.62033 11.3743 8.63628 11.522 8.69723C11.6697 8.75818 11.7959 8.86139 11.8848 8.99381C11.9736 9.12623 12.021 9.28191 12.021 9.44118C12.0211 9.54696 12.0003 9.65173 11.9597 9.74949C11.9192 9.84725 11.8596 9.93607 11.7845 10.0109C11.7094 10.0857 11.6203 10.145 11.5222 10.1854C11.424 10.2258 11.3188 10.2466 11.2127 10.2464ZM11.2127 7.83171C11.0528 7.83171 10.8965 7.78448 10.7636 7.696C10.6306 7.60752 10.527 7.48176 10.4659 7.33462C10.4047 7.18748 10.3887 7.02557 10.4199 6.86937C10.451 6.71317 10.528 6.56969 10.6411 6.45707C10.7541 6.34446 10.8982 6.26777 11.055 6.23669C11.2118 6.20562 11.3743 6.22157 11.522 6.28252C11.6697 6.34346 11.7959 6.44668 11.8848 6.5791C11.9736 6.71152 12.021 6.8672 12.021 7.02647C12.0209 7.13208 11.9998 7.23663 11.9591 7.33415C11.9184 7.43167 11.8589 7.52025 11.7838 7.59484C11.7087 7.66942 11.6197 7.72855 11.5217 7.76884C11.4237 7.80913 11.3187 7.8298 11.2127 7.82967V7.83171ZM13.6366 10.2464C13.4767 10.2464 13.3205 10.1992 13.1875 10.1107C13.0546 10.0222 12.951 9.89647 12.8898 9.74933C12.8286 9.60219 12.8126 9.44028 12.8438 9.28408C12.875 9.12788 12.952 8.9844 13.065 8.87178C13.1781 8.75917 13.3221 8.68248 13.4789 8.65141C13.6357 8.62033 13.7983 8.63628 13.946 8.69723C14.0937 8.75818 14.2199 8.86139 14.3087 8.99381C14.3975 9.12623 14.4449 9.28191 14.4449 9.44118C14.4451 9.54696 14.4243 9.65173 14.3837 9.74949C14.3431 9.84725 14.2836 9.93607 14.2085 10.0109C14.1334 10.0857 14.0442 10.145 13.9461 10.1854C13.848 10.2258 13.7428 10.2466 13.6366 10.2464ZM13.6366 7.83171C13.4767 7.83171 13.3205 7.78448 13.1875 7.696C13.0546 7.60752 12.951 7.48176 12.8898 7.33462C12.8286 7.18748 12.8126 7.02557 12.8438 6.86937C12.875 6.71317 12.952 6.56969 13.065 6.45707C13.1781 6.34446 13.3221 6.26777 13.4789 6.23669C13.6357 6.20562 13.7983 6.22157 13.946 6.28252C14.0937 6.34346 14.2199 6.44668 14.3087 6.5791C14.3975 6.71152 14.4449 6.8672 14.4449 7.02647C14.4448 7.13208 14.4238 7.23663 14.3831 7.33415C14.3424 7.43167 14.2828 7.52025 14.2078 7.59484C14.1327 7.66942 14.0436 7.72855 13.9456 7.76884C13.8476 7.80913 13.7426 7.8298 13.6366 7.82967V7.83171Z" fill="#4EB3D4"/>
</svg>
