<svg width="25" height="24" viewBox="0 0 25 24" fill="none" xmlns="http://www.w3.org/2000/svg">
<path d="M12.5001 22C6.94736 22 2.44629 17.523 2.44629 12C2.44629 6.477 6.94736 2 12.5001 2C18.0527 2 22.5538 6.477 22.5538 12C22.5538 17.523 18.0527 22 12.5001 22ZM11.1146 8.415C11.0541 8.37485 10.9838 8.35177 10.9112 8.34822C10.8385 8.34467 10.7663 8.36079 10.7021 8.39486C10.6379 8.42893 10.5842 8.47967 10.5468 8.54168C10.5093 8.60369 10.4894 8.67465 10.4893 8.747V15.253C10.4894 15.3253 10.5093 15.3963 10.5468 15.4583C10.5842 15.5203 10.6379 15.5711 10.7021 15.6051C10.7663 15.6392 10.8385 15.6553 10.9112 15.6518C10.9838 15.6482 11.0541 15.6252 11.1146 15.585L16.0199 12.333C16.075 12.2965 16.1203 12.247 16.1516 12.1889C16.1829 12.1308 16.1992 12.0659 16.1992 12C16.1992 11.9341 16.1829 11.8692 16.1516 11.8111C16.1203 11.753 16.075 11.7035 16.0199 11.667L11.1136 8.415H11.1146Z" fill="#5BE5BE"/>
</svg>
